<svg width="104" height="105" viewBox="0 0 104 105" fill="none" xmlns="http://www.w3.org/2000/svg">
<rect y="0.984375" width="103.529" height="103.88" rx="28.9317" fill="#3692FF"/>
<path d="M49.9902 29.9061C51.2825 34.372 47.8655 39.2931 43.9487 40.4342C40.032 41.5753 34.6809 39.2086 33.3886 34.7427C32.0963 30.2767 34.8092 24.0888 38.726 22.9477C43.9487 21.4262 48.6979 25.4401 49.9902 29.9061Z" fill="#222327"/>
<path d="M52.1442 29.9061C50.8519 34.372 54.2689 39.2931 58.1857 40.4342C62.1024 41.5753 67.4535 39.2086 68.7458 34.7427C70.0381 30.2767 67.3252 24.0888 63.4084 22.9477C58.1857 21.4262 53.4365 25.4401 52.1442 29.9061Z" fill="#222327"/>
<path d="M76.3971 62.5322C76.3971 73.8915 65.2589 78.1139 50.0657 78.1139C34.8725 78.1139 23.9863 73.8915 23.9863 62.5322C23.9863 49.319 34.8725 37.6016 50.0657 37.6016C65.2589 37.6016 76.3971 48.3217 76.3971 62.5322Z" fill="#F3D6DD"/>
<path d="M45.0365 60.2896C45.0365 64.01 42.6485 68.0912 39.3115 68.0912C35.9745 68.0912 30.584 65.0599 30.584 59.5025C30.584 54.282 36.4074 52.4253 42.4249 53.3786C46.1131 53.9629 45.0365 56.5693 45.0365 60.2896Z" fill="#222327"/>
<path d="M42.2451 59.914C42.2451 60.472 42.0773 60.9244 41.2381 60.9244C40.3989 60.9244 40.2311 60.472 40.2311 59.914C40.2311 59.356 40.5668 58.9036 41.2381 58.9036C41.9095 58.9036 42.2451 59.356 42.2451 59.914Z" fill="white"/>
<path d="M55.1867 60.2896C55.1867 64.01 57.5747 68.0912 60.9117 68.0912C64.2487 68.0912 69.6392 65.0599 69.6392 59.5025C69.6392 54.282 63.8158 52.4253 57.7983 53.3786C54.1101 53.9629 55.1867 56.5693 55.1867 60.2896Z" fill="#222327"/>
<path d="M57.9812 59.914C57.9812 60.472 58.149 60.9244 58.9882 60.9244C59.8274 60.9244 59.9952 60.472 59.9952 59.914C59.9952 59.356 59.6596 58.9036 58.9882 58.9036C58.3169 58.9036 57.9812 59.356 57.9812 59.914Z" fill="white"/>
<path d="M46.2655 65.6706C46.0623 65.374 45.6572 65.2983 45.3606 65.5015C45.064 65.7047 44.9883 66.1099 45.1915 66.4064L46.2655 65.6706ZM49.999 64.8699L50.6148 64.6589C50.5247 64.3957 50.2772 64.2189 49.999 64.2189C49.7208 64.2189 49.4734 64.3957 49.3832 64.6589L49.999 64.8699ZM54.8065 66.4064C55.0097 66.1099 54.934 65.7047 54.6375 65.5015C54.3409 65.2983 53.9357 65.374 53.7325 65.6706L54.8065 66.4064ZM45.1915 66.4064C45.3714 66.6689 45.698 67.0207 46.136 67.3113C46.5781 67.6046 47.1686 67.8581 47.8638 67.8581V66.5562C47.4913 66.5562 47.1477 66.4201 46.8557 66.2264C46.5598 66.0301 46.3526 65.7976 46.2655 65.6706L45.1915 66.4064ZM47.8638 67.8581C48.7192 67.8581 49.3555 67.2479 49.7515 66.7225C50.1696 66.1677 50.4651 65.5179 50.6148 65.0808L49.3832 64.6589C49.266 65.0009 49.0277 65.5198 48.7118 65.9389C48.3738 66.3873 48.0759 66.5562 47.8638 66.5562V67.8581ZM49.3832 65.0808C49.5329 65.5179 49.8284 66.1677 50.2465 66.7225C50.6425 67.2479 51.2788 67.8581 52.1343 67.8581V66.5562C51.9221 66.5562 51.6242 66.3873 51.2862 65.9389C50.9703 65.5198 50.732 65.0009 50.6148 64.6589L49.3832 65.0808ZM52.1343 67.8581C52.8294 67.8581 53.42 67.6046 53.862 67.3113C54.3 67.0207 54.6267 66.6689 54.8065 66.4064L53.7325 65.6706C53.6455 65.7976 53.4383 66.0301 53.1423 66.2264C52.8504 66.4201 52.5068 66.5562 52.1343 66.5562V67.8581Z" fill="#222327"/>
<path d="M53.553 64.2691C53.553 64.8106 51.1148 65.4998 50.2942 65.7165C50.1189 65.7628 49.938 65.7628 49.7626 65.7165C48.9421 65.4998 46.5038 64.8106 46.5038 64.2691C46.5038 63.6181 48.4526 62.9219 50.0284 62.9219C51.6042 62.9219 53.553 63.6181 53.553 64.2691Z" fill="#222327"/>
<path d="M49.6071 46.9512C39.8126 46.9512 36.2132 43.5103 35.6309 41.4976L40.2896 36.4336L50.3835 34.6807L64.3597 41.4976C63.5185 43.1207 59.4123 46.9512 49.6071 46.9512Z" fill="#222327"/>
<path fill-rule="evenodd" clip-rule="evenodd" d="M50.9626 83.7631C71.2026 83.7631 86.0406 78.0587 86.0406 62.7124C86.0406 43.5141 71.2026 29.0312 50.9626 29.0312C30.7226 29.0312 16.2202 44.8614 16.2202 62.7124C16.2202 78.0587 30.7226 83.7631 50.9626 83.7631ZM50.167 77.8696C65.0551 77.8696 75.9696 73.6922 75.9696 62.454C75.9696 48.395 65.0551 37.7891 50.167 37.7891C35.2789 37.7891 24.6113 49.3816 24.6113 62.454C24.6113 73.6922 35.2789 77.8696 50.167 77.8696Z" fill="white"/>
</svg>
